<svg width="550" height="470" viewBox="0 0 550 470" fill="none" xmlns="http://www.w3.org/2000/svg">
<g clip-path="url(#clip0_4_46)">
<path opacity="0.18" d="M529.413 284.506C527.113 279.82 524.689 275.209 522.141 270.675C519.743 266.352 517.271 262.123 514.722 257.987C503.627 239.938 491.301 222.171 485.875 201.293C479.169 175.459 485.875 146.813 478.683 121.841C472.577 100.119 453.966 77.396 439.939 61.3158C408.921 25.5702 366.629 -0.544855 320.402 0.105385C311.509 0.280788 302.645 1.2625 293.903 3.04025C276.588 6.44961 259.596 12.3896 242.881 18.523C200.541 34.0936 158.087 51.4391 121.773 79.7509C85.4579 108.063 55.5089 148.817 47.2644 196.478C42.9882 221.081 44.527 247.021 37.1734 270.816C28.362 299.286 8.79547 317.985 2.57565 347.562C-4.58361 381.603 2.8996 421.829 29.188 441.952C42.8749 452.408 59.9632 456.31 76.5007 458.436C118.199 463.676 160.446 459.268 200.46 445.502C223.023 437.716 245.359 426.891 269.04 426.785C294.534 426.662 318.426 438.982 342.203 448.964C378.583 464.253 418.024 474.622 456.541 467.926C495.059 461.23 532.41 434.536 545.076 394.555C556.593 358.211 546.453 319.18 529.413 284.506Z" fill="#4853FF"/>
<path d="M292.056 418.86L293.125 419.018C293.902 419.686 291.732 419.826 292.056 418.86Z" fill="url(#paint0_linear_4_46)"/>
<path d="M529.413 284.506C521.444 288.021 513.07 291.325 507.903 295.279L385.596 388.492C376.215 395.837 366.441 402.573 356.327 408.667C348.083 413.5 343.369 422.726 333.392 425.186C328.431 426.12 323.353 426.025 318.425 424.905C310.383 423.482 302.47 421.3 294.777 418.385C293.821 418.034 292.493 417.823 292.072 418.807C220.803 408.262 152.628 380.144 81.959 365.54C81.1338 365.374 80.3806 364.922 79.8129 364.251C79.2452 363.581 78.8938 362.728 78.8115 361.822C78.7293 360.915 78.9207 360.005 79.3569 359.227C79.7932 358.449 80.4506 357.846 81.2301 357.509C87.1453 355.236 93.2551 353.611 99.4684 352.658C110.807 350.391 121.999 348.177 133.305 346.173C156.091 341.891 179.096 339.121 202.193 337.878C240.548 336.121 279.244 340.567 317.194 334.118C353.201 328.055 387.2 312.396 420.744 296.808C428.843 293.047 437.072 289.146 443.421 282.538C448.377 277.371 452.378 270.517 458.711 267.108C465.044 263.698 473.289 264.208 480.351 264.56C494.393 265.597 508.358 267.628 522.157 270.64C524.737 275.198 527.156 279.82 529.413 284.506Z" fill="url(#paint1_linear_4_46)"/>
<path d="M85.1175 339.407L245.213 263.839C248.678 261.942 252.594 261.237 256.438 261.818L454.451 280.077C458.242 280.657 457.561 298.337 454.451 301.166L337.538 409.282C334.008 412.638 329.787 415.028 325.23 416.251C320.673 417.474 315.913 417.495 311.347 416.311L86.5267 357.017C83.6597 356.261 82.4287 340.866 85.1175 339.407Z" fill="#4853FF"/>
<path d="M85.1175 339.407L245.213 263.839C248.678 261.942 252.594 261.237 256.438 261.818L454.451 280.077C458.242 280.657 457.561 298.337 454.451 301.166L337.538 409.282C334.008 412.638 329.787 415.028 325.23 416.251C320.673 417.474 315.913 417.495 311.347 416.311L86.5267 357.017C83.6597 356.261 82.4287 340.866 85.1175 339.407Z" fill="url(#paint2_linear_4_46)"/>
<path d="M454.5 288.654L337.538 396.664C334.019 400.036 329.805 402.443 325.25 403.682C320.695 404.92 315.933 404.954 311.363 403.781L86.5105 344.486C83.6436 343.731 83.271 338.81 85.9436 337.351L147.607 299.62L163.805 289.743L213.061 259.621C216.522 257.73 220.431 257.025 224.27 257.6L452.491 279.234C456.282 279.726 457.561 285.824 454.5 288.654Z" fill="#4853FF"/>
<path d="M224.253 263.575L432.876 297.054L368.67 353.642L154.54 306.632L224.253 263.575Z" fill="url(#paint3_linear_4_46)"/>
<path d="M308.01 323.063C316.88 320.983 325.362 317.293 333.1 312.15C335.238 310.674 337.587 308.02 336.34 305.595C335.497 303.837 333.424 303.363 332.776 301.518C335.611 300.27 338.721 300.85 341.296 298.442C343.871 296.035 344.147 291.413 341.409 289.655C343.557 289.5 345.631 288.749 347.435 287.476C348.313 286.814 348.966 285.855 349.291 284.749C349.616 283.644 349.595 282.452 349.233 281.36C348.245 279.128 345.653 278.496 343.418 278.109C340.288 277.441 337.098 277.164 333.91 277.283C330.262 277.635 326.727 278.834 323.544 280.798C320.563 282.555 318.15 285.613 315.186 287.23C309.128 290.534 301.175 290.165 294.664 291.711C289.804 292.854 285.107 294.84 280.329 296.404C275.551 297.968 271.015 299.092 266.302 300.217C254.899 302.935 243.469 305.513 232.012 307.95C232.757 313.486 238.216 316.543 242.994 318.635C249.626 321.788 256.557 324.146 263.662 325.664C269.228 326.537 274.859 326.813 280.475 326.49C289.734 326.315 298.955 325.167 308.01 323.063Z" fill="url(#paint4_linear_4_46)"/>
<path d="M202.419 320.656L288.395 339.513L243.933 378.879L154.54 357.104L202.419 320.656Z" fill="url(#paint5_linear_4_46)"/>
<path d="M159.415 363.906C160.293 365.825 161.536 367.52 163.064 368.877C164.592 370.234 166.368 371.224 168.275 371.779C174.592 373.431 211.409 383.659 211.409 383.659C211.409 383.659 217.402 384.432 220.722 380.144L159.415 363.906Z" fill="url(#paint6_linear_4_46)"/>
<path d="M217.693 257.583L453.139 293.926C454.866 294.195 456.623 293.735 458.046 292.639C459.469 291.543 460.449 289.896 460.785 288.038L494.378 104.003C494.738 102.039 494.712 100.014 494.302 98.0617C493.893 96.1089 493.108 94.2718 492 92.67C490.892 91.0683 489.485 89.7379 487.872 88.7655C486.258 87.7931 484.474 87.2006 482.635 87.0267L250.121 64.8307C246.698 64.5053 243.294 65.6478 240.639 68.0131C237.984 70.3784 236.288 73.7783 235.916 77.484L217.693 257.583Z" fill="#4853FF"/>
<path d="M217.693 257.583L452.556 293.838C454.454 294.129 456.382 293.622 457.945 292.419C459.509 291.216 460.588 289.41 460.963 287.371L494.427 104.003C494.786 102.039 494.761 100.014 494.351 98.0617C493.941 96.1089 493.157 94.2718 492.049 92.67C490.941 91.0683 489.534 89.7379 487.92 88.7655C486.307 87.7931 484.522 87.2006 482.683 87.0267L250.121 64.8307C246.698 64.5053 243.294 65.6478 240.639 68.0131C237.984 70.3784 236.288 73.7783 235.916 77.484L217.693 257.583Z" fill="url(#paint7_linear_4_46)"/>
<path d="M448.928 283.364L482.376 97.6589L245.229 73.8988L226.375 249.727L448.928 283.364Z" fill="white"/>
<path d="M207.894 360.408C207.848 360.896 207.9 361.388 208.045 361.852C208.19 362.316 208.426 362.741 208.736 363.097C209.075 363.355 209.462 363.529 209.87 363.607C210.936 363.837 212.026 363.908 213.11 363.818C215.12 363.665 217.118 363.354 219.086 362.886L222.488 362.183C222.701 362.169 222.91 362.108 223.102 362.006C223.294 361.903 223.465 361.761 223.606 361.586C223.702 361.353 223.735 361.095 223.7 360.843C223.666 360.591 223.565 360.355 223.411 360.162C222.826 359.44 222.07 358.905 221.225 358.616C219.19 357.719 217.094 356.996 214.956 356.454C214.602 356.396 214.264 356.252 213.968 356.032C213.547 355.628 213.466 354.943 213.174 354.398C212.881 353.941 212.468 353.59 211.989 353.389C211.509 353.189 210.986 353.149 210.486 353.273C209.514 353.484 208.105 354.205 207.878 355.365C207.713 357.041 207.719 358.733 207.894 360.408Z" fill="#F9C6D6"/>
<path d="M218.844 356.893C218.499 356.796 218.136 356.798 217.792 356.9C217.449 357.002 217.135 357.199 216.884 357.473C216.333 358.37 217.062 359.793 216.382 360.602C216.176 360.786 215.937 360.923 215.681 361.004C215.425 361.086 215.156 361.11 214.891 361.076H211.117C210.112 361.121 209.106 361.032 208.121 360.812C207.893 360.722 207.649 360.692 207.408 360.725C207.245 360.781 207.1 360.887 206.991 361.03C206.881 361.174 206.813 361.348 206.793 361.533C206.753 361.904 206.803 362.279 206.938 362.623C207.175 363.366 207.526 364.061 207.975 364.679C208.093 364.866 208.248 365.022 208.429 365.136C208.641 365.221 208.866 365.262 209.093 365.259C211.312 365.259 213.531 365.259 215.75 365.153C217.289 365.03 218.811 364.784 220.35 364.644C222.557 364.639 224.748 364.229 226.829 363.431C227.101 363.33 227.352 363.171 227.566 362.963C227.781 362.754 227.954 362.501 228.076 362.218C228.142 361.958 228.151 361.684 228.103 361.419C228.055 361.154 227.952 360.904 227.801 360.689C227.501 360.268 227.127 359.915 226.699 359.653C225.486 358.814 224.158 358.191 222.763 357.807C221.479 357.401 220.169 357.096 218.844 356.893Z" fill="#565056"/>
<path d="M166.834 355.909C166.817 355.996 166.817 356.086 166.834 356.173C166.963 359.407 170.915 359.494 173.037 359.371C175.052 359.217 177.054 358.912 179.03 358.458L182.415 357.755C182.63 357.738 182.839 357.675 183.031 357.569C183.223 357.463 183.394 357.317 183.533 357.14C183.63 356.91 183.663 356.655 183.629 356.405C183.594 356.156 183.493 355.922 183.339 355.734C182.76 355.008 182.01 354.467 181.168 354.169C179.338 353.411 177.473 352.754 175.58 352.201C173.96 351.656 175.305 349.143 175.483 347.808C175.564 347.545 175.564 347.262 175.483 346.999C175.301 346.706 175.023 346.498 174.706 346.419C173.724 346.055 172.697 345.854 171.66 345.822C171.454 345.798 171.245 345.841 171.061 345.945C170.893 346.082 170.769 346.273 170.705 346.49L167.465 353.976C167.145 354.572 166.931 355.228 166.834 355.909Z" fill="#F9C6D6"/>
<path d="M168.275 260.623C168.275 260.623 165.862 275.385 170.851 286.474C173.472 292.428 176.398 298.219 179.613 303.82C179.613 303.82 169.215 316.016 169.215 331.394C169.215 346.771 168.955 347.474 168.955 347.474L175.191 350.989L190.741 303.837C190.741 303.837 191.68 297.159 190.741 294.892C189.802 292.625 181.832 266.932 181.832 266.932L168.275 260.623Z" fill="#473F47"/>
<path d="M224.756 200.713C221.516 200.713 218.001 196.987 216.041 191.223C213.774 184.562 214.746 178.447 218.309 177.023C221.872 175.6 226.262 179.554 228.53 186.232C230.797 192.893 229.825 199.008 226.262 200.432C225.779 200.621 225.269 200.717 224.756 200.713ZM219.896 179.888C219.725 179.881 219.555 179.911 219.394 179.976C217.774 180.643 217.127 185.125 218.827 190.133C220.528 195.142 223.687 198.147 225.306 197.479C226.926 196.812 227.574 192.33 225.873 187.322C224.237 182.77 221.516 179.888 219.783 179.888H219.896Z" fill="#473F47"/>
<path d="M237.552 215.352C237.332 215.355 237.115 215.304 236.916 215.203C236.717 215.103 236.541 214.956 236.401 214.772L225.679 200.151C225.44 199.824 225.331 199.409 225.375 198.995C225.419 198.582 225.613 198.204 225.914 197.945C226.214 197.687 226.597 197.568 226.979 197.616C227.36 197.664 227.708 197.874 227.946 198.2L238.669 212.892C238.842 213.119 238.952 213.396 238.985 213.689C239.018 213.982 238.973 214.278 238.855 214.544C238.738 214.811 238.553 215.035 238.322 215.19C238.091 215.346 237.823 215.426 237.552 215.423V215.352Z" fill="#473F47"/>
<path d="M218.536 193.578C218.708 195.123 218.768 196.68 218.714 198.235C218.442 199.445 217.767 200.503 216.819 201.205C215.868 201.899 214.809 202.399 213.693 202.681C213.363 202.756 213.049 202.899 212.769 203.103C212.575 203.361 212.431 203.659 212.348 203.98C212.264 204.3 212.242 204.636 212.284 204.966V208.938C212.328 209.351 212.237 209.768 212.024 210.115C211.854 210.31 211.634 210.445 211.393 210.502C210.504 210.723 209.572 210.6 208.759 210.154C207.945 209.707 207.301 208.966 206.938 208.059C206.508 207.185 206.038 206.334 205.529 205.511C205.038 204.411 204.752 203.216 204.687 201.996C204.317 198.178 204.975 194.326 206.582 190.907C207.581 188.733 209.034 186.844 210.826 185.388C212.267 184.264 215.053 182.594 216.527 184.527C217.256 185.476 217.24 186.9 217.92 187.902C218.406 188.622 219.281 189.132 219.41 190.01C219.54 190.889 219.005 191.522 218.762 192.26C218.614 192.681 218.538 193.127 218.536 193.578Z" fill="#F9C6D6"/>
<path d="M229.291 201.627C229.298 201.545 229.298 201.463 229.291 201.381C229.303 200.465 229.619 199.585 230.182 198.903C230.465 198.57 230.845 198.354 231.258 198.29C231.671 198.226 232.092 198.318 232.449 198.552C232.725 198.762 232.935 199.114 233.259 199.272C233.583 199.43 234.28 199.272 234.62 199.694C234.96 200.116 234.863 200.467 235.025 200.836C235.187 201.205 235.656 201.539 235.964 201.891C237.487 203.648 235.802 206.864 235.203 208.674C234.296 211.381 233.405 214.105 232.66 216.881C231.764 217.022 230.851 216.83 230.068 216.336C229.784 216.151 229.532 215.913 229.323 215.633C229.074 215.154 228.92 214.624 228.87 214.076C228.819 213.529 228.875 212.976 229.032 212.453C229.223 211.656 229.278 210.828 229.194 210.01C228.975 209.125 228.704 208.256 228.384 207.409C228.157 206.688 227.963 205.774 228.481 205.265C228.688 205.125 228.883 204.966 229.064 204.79C229.191 204.582 229.259 204.337 229.258 204.087C229.323 203.261 229.258 202.435 229.291 201.627Z" fill="#F9C6D6"/>
<path d="M199.682 266.932L214.794 303.837L214.162 356.103L207.23 355.558C207.23 355.558 195.373 325.823 203.002 307.405C203.002 307.405 184.683 290.411 177.913 280.745C169.603 268.848 171.434 258.865 171.434 258.865L199.682 266.932Z" fill="#565056"/>
<path d="M206.679 203.455C208.534 203.919 210.333 204.614 212.041 205.528C217.839 208.428 218.098 213.401 220.139 219.359C221.436 223.153 222.911 226.872 224.561 230.501L227.363 212.54L235.106 215.95C235.106 215.95 235.883 242.451 230.247 246.019C226.586 248.303 221.451 245.632 218.131 243.787C216.916 243.119 214.891 241.098 213.612 240.905C211.134 240.536 210.972 243.734 208.753 245.597C207.318 246.506 205.944 247.522 204.638 248.637C203.408 250.171 202.487 251.967 201.933 253.91C201.31 256.314 201.129 258.828 201.399 261.308C201.571 262.138 201.58 262.997 201.423 263.83C201.267 264.663 200.949 265.451 200.492 266.141C199.853 266.73 199.071 267.108 198.24 267.231C195.482 267.661 192.679 267.626 189.931 267.125C184.483 266.66 179.09 265.612 173.831 263.997C171.916 263.355 170.044 262.574 168.227 261.66C167.832 261.477 167.471 261.221 167.158 260.904C166.827 260.484 166.608 259.973 166.526 259.428C165.797 255.808 168.146 252.398 169.425 249.006C170.235 246.687 170.494 244.156 171.223 241.801C172.175 239.404 173.406 237.148 174.884 235.088C175.969 233.33 176.503 231.081 177.67 229.183C180.586 224.321 183.834 219.704 187.388 215.37C189.461 212.576 191.772 209.999 194.288 207.672C197.157 204.909 200.836 203.339 204.671 203.244C205.344 203.254 206.016 203.325 206.679 203.455Z" fill="#4853FF"/>
<path d="M200.152 169.783C198.135 170.09 196.223 170.948 194.596 172.278C191.049 175.406 190.239 181.065 186.87 184.422C183.987 187.251 179.824 187.814 175.953 188.253C176.578 190.202 177.552 191.997 178.819 193.536C180.086 195.074 181.622 196.325 183.336 197.217C185.051 198.109 186.912 198.624 188.811 198.732C190.71 198.841 192.61 198.54 194.402 197.848L190.433 202.137C190.329 202.225 190.255 202.349 190.223 202.488C190.223 202.769 190.466 202.945 190.709 203.033C192.546 203.769 194.573 203.719 196.378 202.892C196.404 203.805 196.728 204.678 197.291 205.357C197.855 206.036 198.621 206.476 199.455 206.6C200.628 206.784 201.824 206.626 202.921 206.143C203.534 205.88 204.19 205.754 204.849 205.774C205.4 205.774 205.902 206.091 206.469 205.88C208.148 204.732 209.496 203.093 210.356 201.152C211.636 198.024 209.757 194.123 211.296 191.03C212.575 188.569 216.592 187.831 217.191 185.055C217.839 181.979 216.301 177.48 214.665 175.055C212.804 172.288 210.062 170.372 206.971 169.677C205.163 169.33 203.316 169.289 201.496 169.554L200.152 169.783Z" fill="#FC682D"/>
<path d="M178.156 351.885C177.809 351.788 177.446 351.792 177.101 351.897C176.757 352.002 176.445 352.204 176.196 352.482C175.645 353.361 176.374 354.785 175.694 355.593C175.49 355.781 175.252 355.92 174.995 356.002C174.738 356.084 174.469 356.106 174.203 356.068H170.429C169.424 356.13 168.416 356.041 167.433 355.804C167.203 355.722 166.961 355.692 166.72 355.716C166.557 355.772 166.412 355.878 166.303 356.022C166.193 356.165 166.125 356.34 166.105 356.524C166.072 356.895 166.122 357.269 166.25 357.614C166.488 358.358 166.838 359.053 167.287 359.67C167.41 359.853 167.564 360.008 167.741 360.127C167.952 360.218 168.178 360.26 168.405 360.25C170.624 360.25 172.843 360.25 175.062 360.145C176.682 360.022 178.123 359.776 179.662 359.653C181.87 359.643 184.061 359.227 186.141 358.422C186.413 358.322 186.664 358.163 186.879 357.954C187.093 357.746 187.266 357.493 187.388 357.21C187.454 356.949 187.463 356.676 187.415 356.41C187.367 356.145 187.264 355.896 187.113 355.681C186.809 355.264 186.435 354.912 186.011 354.644C184.798 353.805 183.47 353.182 182.075 352.799C180.789 352.401 179.479 352.096 178.156 351.885Z" fill="#565056"/>
<path d="M277.43 324.557C251.238 324.153 230.117 314.435 230.279 302.818C230.279 301.535 229.388 294.242 229.906 293.082C234.037 283.346 254.688 282.204 277.98 282.538C300.9 282.907 320.094 282.538 324.435 292.151C325.066 293.522 325.163 302.871 325.147 304.259C325.001 315.893 303.637 324.926 277.43 324.557Z" fill="#E8A825"/>
<path d="M324.813 294.612C324.966 283.015 303.851 273.284 277.652 272.877C251.453 272.47 230.091 281.542 229.938 293.139C229.785 304.736 250.899 314.468 277.098 314.874C303.297 315.281 324.66 306.21 324.813 294.612Z" fill="#F8C244"/>
<path d="M317.784 294.503C317.914 284.623 299.928 276.334 277.611 275.987C255.294 275.64 237.097 283.368 236.967 293.248C236.836 303.128 254.822 311.418 277.139 311.764C299.456 312.111 317.653 304.383 317.784 294.503Z" fill="#E8A825"/>
<path d="M251.886 291.782L258.365 291.887C258.493 290.974 258.821 290.107 259.323 289.36C259.825 288.614 260.485 288.01 261.248 287.599L265.541 288.32C264.797 288.686 264.15 289.25 263.66 289.96C263.17 290.669 262.853 291.502 262.738 292.379C262.738 294.4 265.33 295.894 268.958 295.894C270.363 296.003 271.773 295.78 273.09 295.24C274.407 294.7 275.6 293.856 276.587 292.766C278.016 291.154 279.761 289.912 281.693 289.133C283.626 288.354 285.695 288.058 287.747 288.267C293.06 288.267 297.093 290.024 298.033 292.696L304.512 292.801V294.558L298.276 294.453C298.18 295.214 297.924 295.941 297.528 296.578C297.132 297.215 296.607 297.745 295.992 298.126L291.781 297.353C292.376 296.995 292.885 296.491 293.268 295.88C293.651 295.27 293.896 294.57 293.983 293.838C293.983 291.676 291.084 290.78 288.509 290.745C287.124 290.66 285.739 290.924 284.464 291.515C283.188 292.107 282.056 293.01 281.155 294.154C278.434 297.019 275.065 298.442 269.298 298.442C264.212 298.442 259.402 296.685 258.43 293.785L251.773 293.68L251.886 291.782Z" fill="#F8C244"/>
<path d="M269.946 303.837C243.755 303.433 222.634 293.715 222.796 282.098C222.796 280.815 221.905 273.522 222.407 272.362C226.553 262.626 247.205 261.484 270.497 261.818C293.416 262.187 312.61 261.818 316.951 271.431C317.583 272.802 317.68 282.151 317.664 283.539C317.518 295.05 296.154 304.154 269.946 303.837Z" fill="#E8A825"/>
<path d="M317.338 273.805C317.491 262.207 296.376 252.476 270.177 252.069C243.978 251.662 222.616 260.734 222.463 272.331C222.31 283.929 243.424 293.66 269.623 294.067C295.822 294.474 317.185 285.402 317.338 273.805Z" fill="#F8C244"/>
<path d="M310.309 273.696C310.439 263.816 292.453 255.526 270.136 255.18C247.819 254.833 229.622 262.561 229.492 272.441C229.361 282.32 247.347 290.61 269.664 290.957C291.981 291.303 310.178 283.575 310.309 273.696Z" fill="#E8A825"/>
<path d="M244.403 270.974L250.882 271.08C251.009 270.166 251.338 269.299 251.84 268.553C252.342 267.806 253.002 267.202 253.765 266.792L258.057 267.512C257.313 267.879 256.667 268.443 256.177 269.152C255.687 269.862 255.37 270.694 255.255 271.572C255.255 273.593 257.847 275.086 261.475 275.086C262.888 275.211 264.309 274.998 265.638 274.464C266.967 273.93 268.172 273.087 269.169 271.993C270.595 270.378 272.34 269.134 274.273 268.355C276.206 267.576 278.276 267.281 280.329 267.494C285.642 267.494 289.675 269.252 290.614 271.923L297.093 272.029V273.786L290.857 273.681C290.762 274.442 290.506 275.169 290.11 275.806C289.714 276.443 289.188 276.972 288.573 277.353L284.362 276.58C284.958 276.223 285.467 275.718 285.85 275.108C286.232 274.497 286.477 273.798 286.565 273.065C286.565 270.921 283.666 270.025 281.09 269.99C279.705 269.905 278.321 270.169 277.045 270.76C275.77 271.352 274.638 272.255 273.737 273.399C271.015 276.264 267.646 277.687 261.88 277.687C256.794 277.687 251.983 275.93 251.012 273.03L244.354 272.925L244.403 270.974Z" fill="#F8C244"/>
<path d="M292.024 293.873C265.816 293.451 244.695 283.733 244.857 272.134C244.857 270.851 243.966 263.558 244.484 262.398C248.614 252.662 269.282 251.52 292.574 251.854C315.494 252.223 334.688 251.854 339.012 261.467C339.644 262.837 339.741 272.204 339.725 273.593C339.595 285.192 318.215 294.277 292.024 293.873Z" fill="#E8A825"/>
<path d="M339.407 263.93C339.56 252.332 318.446 242.601 292.247 242.194C266.048 241.787 244.686 250.859 244.533 262.456C244.38 274.054 265.494 283.785 291.693 284.192C317.892 284.599 339.254 275.527 339.407 263.93Z" fill="#F8C244"/>
<path d="M332.378 263.821C332.509 253.941 314.523 245.651 292.206 245.305C269.889 244.958 251.692 252.686 251.562 262.566C251.431 272.445 269.417 280.735 291.734 281.082C314.051 281.428 332.248 273.7 332.378 263.821Z" fill="#E8A825"/>
<path d="M266.464 261.08L272.943 261.185C273.069 260.271 273.397 259.404 273.899 258.657C274.401 257.91 275.062 257.307 275.826 256.897L280.118 257.635C279.376 258.007 278.731 258.573 278.239 259.281C277.748 259.989 277.425 260.819 277.3 261.695C277.3 263.698 279.892 265.122 283.536 265.21C284.949 265.334 286.369 265.122 287.698 264.587C289.028 264.053 290.233 263.21 291.23 262.117C292.655 260.505 294.398 259.263 296.327 258.484C298.257 257.705 300.324 257.409 302.374 257.618C307.703 257.618 311.736 259.375 312.659 262.064L319.138 262.169V263.927L312.918 263.821C312.816 264.583 312.556 265.309 312.158 265.945C311.759 266.581 311.233 267.111 310.618 267.494L306.407 266.721C307.002 266.361 307.512 265.857 307.897 265.247C308.282 264.637 308.532 263.938 308.626 263.206C308.626 261.062 305.71 260.166 303.151 260.113C301.767 260.033 300.384 260.298 299.109 260.889C297.834 261.481 296.701 262.381 295.797 263.523C293.06 266.405 289.707 267.828 283.925 267.828C278.839 267.828 274.044 266.071 273.072 263.171L266.415 263.066L266.464 261.08Z" fill="#F8C244"/>
<path d="M260.001 193.227C259.24 192.647 263.241 163.649 263.241 163.649L276.83 165.09L273.348 194.228L260.001 193.227Z" fill="#4853FF"/>
<path d="M287.164 196.091C286.403 195.494 293.19 152.156 293.19 152.156L306.779 153.597L300.559 197.181L287.164 196.091Z" fill="#4853FF"/>
<path d="M314.327 198.938C313.582 198.358 324.418 121.085 324.418 121.085L338.008 122.526L327.723 199.94L314.327 198.938Z" fill="#4853FF"/>
<path d="M341.49 201.803C340.745 201.223 349.265 143.088 349.265 143.088L362.855 144.529L354.886 202.804L341.49 201.803Z" fill="#4853FF"/>
<path d="M355.145 210.801L248.728 202.418L248.825 201.715C249.926 192.506 259.645 111.718 260.163 110.224L261.329 110.629C260.924 112.386 253.911 170.187 250.186 201.188L355.274 209.447L355.145 210.801Z" fill="#4853FF"/>
<path opacity="0.39" d="M400.174 237.056L402.668 222.839C395.779 223.007 389.004 220.912 383.231 216.828L388.09 207.391C393.427 211.337 399.758 213.393 406.215 213.278C415.804 213.278 423.206 207.426 424.616 199.413C426.025 191.399 421.603 186.935 412.451 182.752C399.753 177.234 392.464 170.82 394.634 158.623C396.691 146.954 406.151 138.044 418.93 135.777L421.425 121.595H429.734L427.223 135.232C433.04 135.176 438.761 136.834 443.777 140.03L438.837 149.485C434.032 146.233 428.445 144.606 422.785 144.81C412.468 144.81 407.463 151.383 406.475 156.989C405.179 164.3 409.503 167.92 420.242 172.893C433.022 178.693 438.691 185.933 436.44 198.446C434.496 209.553 425.264 220.027 411.075 222.522L408.596 237.056H400.174Z" fill="#4853FF"/>
</g>
<defs>
<linearGradient id="paint0_linear_4_46" x1="290.776" y1="417.665" x2="295.844" y2="421.152" gradientUnits="userSpaceOnUse">
<stop offset="0.01"/>
<stop offset="0.08" stop-opacity="0.69"/>
<stop offset="0.21" stop-opacity="0.32"/>
<stop offset="1" stop-opacity="0"/>
</linearGradient>
<linearGradient id="paint1_linear_4_46" x1="-166.412" y1="-61.755" x2="1122.41" y2="826.671" gradientUnits="userSpaceOnUse">
<stop offset="0.01"/>
<stop offset="0.08" stop-opacity="0.69"/>
<stop offset="0.21" stop-opacity="0.32"/>
<stop offset="1" stop-opacity="0"/>
</linearGradient>
<linearGradient id="paint2_linear_4_46" x1="243.609" y1="225.668" x2="390.241" y2="654.855" gradientUnits="userSpaceOnUse">
<stop offset="0.01"/>
<stop offset="0.08" stop-opacity="0.69"/>
<stop offset="0.21" stop-opacity="0.32"/>
<stop offset="1" stop-opacity="0"/>
</linearGradient>
<linearGradient id="paint3_linear_4_46" x1="315.396" y1="142.877" x2="224.636" y2="708.231" gradientUnits="userSpaceOnUse">
<stop offset="0.01"/>
<stop offset="0.08" stop-opacity="0.69"/>
<stop offset="0.21" stop-opacity="0.32"/>
<stop offset="1" stop-opacity="0"/>
</linearGradient>
<linearGradient id="paint4_linear_4_46" x1="234.992" y1="276.527" x2="497.798" y2="360.342" gradientUnits="userSpaceOnUse">
<stop offset="0.01"/>
<stop offset="0.08" stop-opacity="0.69"/>
<stop offset="0.21" stop-opacity="0.32"/>
<stop offset="1" stop-opacity="0"/>
</linearGradient>
<linearGradient id="paint5_linear_4_46" x1="238.669" y1="222.224" x2="168.747" y2="657.847" gradientUnits="userSpaceOnUse">
<stop offset="0.01"/>
<stop offset="0.08" stop-opacity="0.69"/>
<stop offset="0.21" stop-opacity="0.32"/>
<stop offset="1" stop-opacity="0"/>
</linearGradient>
<linearGradient id="paint6_linear_4_46" x1="197.204" y1="352.078" x2="160.718" y2="438.569" gradientUnits="userSpaceOnUse">
<stop offset="0.01"/>
<stop offset="0.08" stop-opacity="0.69"/>
<stop offset="0.21" stop-opacity="0.32"/>
<stop offset="1" stop-opacity="0"/>
</linearGradient>
<linearGradient id="paint7_linear_4_46" x1="337.522" y1="2.09136" x2="497.153" y2="1287.02" gradientUnits="userSpaceOnUse">
<stop offset="0.01"/>
<stop offset="0.08" stop-opacity="0.69"/>
<stop offset="0.21" stop-opacity="0.32"/>
<stop offset="1" stop-opacity="0"/>
</linearGradient>
<clipPath id="clip0_4_46">
<rect width="550" height="470" fill="white"/>
</clipPath>
</defs>
</svg>
