<svg width="80" height="80" viewBox="0 0 80 80" fill="none" xmlns="http://www.w3.org/2000/svg">
<path d="M26.9522 59.6682C26.9522 63.9037 23.634 67.3373 19.5409 67.3373C15.4477 67.3373 12.1296 63.9037 12.1296 59.6682C12.1296 55.4326 15.4477 51.999 19.5409 51.999C23.634 51.999 26.9522 55.4326 26.9522 59.6682Z" fill="#FF2C2C"/>
<path d="M3.97706 45.0969C23.8393 43.2563 30.5342 52.5105 31.3988 57.3676C36.4385 32.8263 16.4527 31.0368 5.82988 33.2098C1.87719 34.1045 -4.02714 37.7346 3.97706 45.0969Z" fill="#FF2C2C"/>
<path d="M26.9522 20.1725C26.9522 24.408 23.634 27.8416 19.5409 27.8416C15.4477 27.8416 12.1296 24.408 12.1296 20.1725C12.1296 15.9369 15.4477 12.5033 19.5409 12.5033C23.634 12.5033 26.9522 15.9369 26.9522 20.1725Z" fill="#FFCE21"/>
<path d="M33.5641 4.28786C35.0625 24.8651 26.026 31.6617 21.3205 32.4879C44.9632 38.0485 46.9742 17.3946 45.0244 6.37262C44.2156 2.27019 40.7912 -3.89016 33.5641 4.28786Z" fill="#FFCE21"/>
<path d="M65.4908 18.6378C65.4908 22.8733 62.1726 26.3069 58.0795 26.3069C53.9864 26.3069 50.6682 22.8733 50.6682 18.6378C50.6682 14.4022 53.9864 10.9686 58.0795 10.9686C62.1726 10.9686 65.4908 14.4022 65.4908 18.6378Z" fill="#22E7DA"/>
<path d="M74.7822 32.8031C55.2124 36.7699 47.6243 28.2859 46.2765 23.5481C43.729 48.4985 63.7863 48.1288 74.1333 44.8252C77.9748 43.5102 83.4825 39.2648 74.7822 32.8031Z" fill="#22E7DA"/>
<path d="M65.4909 59.2841C65.4909 63.5197 62.1728 66.9533 58.0796 66.9533C53.9865 66.9533 50.6683 63.5197 50.6683 59.2841C50.6683 55.0486 53.9865 51.615 58.0796 51.615C62.1728 51.615 65.4909 55.0486 65.4909 59.2841Z" fill="#8CC90A"/>
<path d="M43.8353 74.8686C43.7309 54.2333 53.2045 48.1071 57.9543 47.6234C34.7452 40.3659 31.3436 60.8237 32.5439 71.9598C33.0736 76.1107 36.0734 82.5037 43.8353 74.8686Z" fill="#8CC90A"/>
</svg>
