<svg width="504" height="457" viewBox="0 0 504 457" fill="none" xmlns="http://www.w3.org/2000/svg">
<g clip-path="url(#clip0_90_343)">
<path d="M380.372 450.359L372.226 450.359L368.35 414.655L380.374 414.656L380.372 450.359Z" fill="#FFB6B6"/>
<path d="M352.46 450.15C352.207 450.635 352.073 452.202 352.073 452.766C352.073 454.501 353.311 455.908 354.838 455.908H380.068C381.109 455.908 381.954 454.948 381.954 453.764V452.571C381.954 452.571 383.202 448.984 380.632 444.563C380.632 444.563 377.439 448.025 372.667 442.603L371.259 439.706L361.073 448.171L355.426 448.96C354.191 449.133 353.096 448.934 352.46 450.15Z" fill="#2F2E41"/>
<path d="M343.332 450.359L335.185 450.359L331.31 414.655L343.334 414.656L343.332 450.359Z" fill="#FFB6B6"/>
<path d="M315.42 450.15C315.167 450.635 315.033 452.202 315.033 452.766C315.033 454.501 316.271 455.908 317.798 455.908H343.028C344.069 455.908 344.914 454.948 344.914 453.764V452.571C344.914 452.571 346.162 448.984 343.592 444.563C343.592 444.563 340.399 448.025 335.626 442.603L334.219 439.706L324.033 448.171L318.386 448.96C317.151 449.133 316.056 448.934 315.42 450.15Z" fill="#2F2E41"/>
<path d="M393.446 227.455L336.752 229.173L330.972 244.632L323.901 345.12L329.949 433.584H347.603V350.091L360.941 298.741L366.233 431.007L384.458 433.584L391.934 342.544L398.737 255.798L393.446 227.455Z" fill="#2F2E41"/>
<path d="M373.304 112.366L353.65 113.225L351.382 123.532C351.382 123.532 327.193 131.262 328.705 141.568C330.216 151.874 337.776 197.395 337.776 197.395C337.776 197.395 329.461 226.596 334.752 230.032C340.043 233.467 394.571 230.032 394.571 230.032C394.571 230.032 399.005 217.149 396.737 215.431C394.47 213.713 403.541 131.262 402.029 129.544C400.517 127.826 375.572 119.237 375.572 119.237L373.304 112.366Z" fill="#3669CC"/>
<path d="M411.856 198.253L413.368 210.278L396.737 253.221L388.422 248.068L397.493 207.701L399.005 192.241L411.856 198.253Z" fill="#FFB6B6"/>
<path d="M395.981 130.403C395.981 130.403 404.297 126.108 410.344 141.568C416.391 157.028 414.879 190.524 414.879 190.524C414.879 190.524 417.147 193.1 415.635 194.818C414.124 196.536 411.25 192.494 414.124 197.956C415.635 200.83 420.171 199.971 415.635 200.83C411.1 201.689 412.689 199.289 414.124 202.548C414.879 204.266 417.903 204.266 414.879 205.124C411.856 205.983 396.642 204.509 396.642 204.509C396.642 204.509 391.446 201.689 394.47 199.971C397.493 198.253 399.005 197.915 397.493 197.226C395.981 196.536 392.202 196.536 394.47 193.959C396.737 191.383 398.249 191.383 396.737 191.383C395.226 191.383 393.524 187.244 393.524 187.244L395.981 130.403Z" fill="#3669CC"/>
<path d="M395.79 260.428C397.632 254.164 396.471 248.078 393.198 246.836C389.924 245.593 385.777 249.664 383.935 255.928C382.093 262.193 383.254 268.278 386.528 269.521C389.801 270.763 393.948 266.692 395.79 260.428Z" fill="#FFB6B6"/>
<path d="M306.552 194.185L300.538 204.228L262.784 223.229L259.695 213.056L290.336 190.171L300.621 179.905L306.552 194.185Z" fill="#FFB6B6"/>
<path d="M335.058 131.896C335.058 131.896 343.749 135.088 339.05 151.141C334.351 167.194 313.37 190.788 313.37 190.788C313.37 190.788 313.518 194.428 311.382 194.54C309.246 194.652 309.52 189.466 308.404 195.701C307.817 198.983 311.677 201.82 307.817 198.983C303.956 196.145 306.554 195.588 305.681 199.095C305.221 200.943 307.455 203.257 304.711 201.577C301.968 199.897 291.6 187.161 291.6 187.161C291.6 187.161 289.433 181.099 292.686 182.145C295.939 183.19 297.256 184.098 296.548 182.431C295.84 180.764 293.047 177.87 296.251 177.702C299.455 177.534 300.572 178.692 299.455 177.534C298.338 176.377 299.535 172.016 299.535 172.016L335.058 131.896Z" fill="#3669CC"/>
<path d="M257.81 227.829C262.886 224.611 265.637 219.225 263.955 215.801C262.273 212.377 256.794 212.21 251.718 215.429C246.642 218.648 243.891 224.033 245.573 227.458C247.256 230.882 252.734 231.048 257.81 227.829Z" fill="#FFB6B6"/>
<path d="M364.334 108.168C374.36 108.168 382.488 98.9337 382.488 87.5422C382.488 76.1507 374.36 66.916 364.334 66.916C354.308 66.916 346.18 76.1507 346.18 87.5422C346.18 98.9337 354.308 108.168 364.334 108.168Z" fill="#FFB6B6"/>
<path d="M349.833 70.9518C350.757 67.9752 353.32 66.1693 356.097 66.2396C356.215 66.2426 356.332 66.2414 356.449 66.2359C357.848 66.1709 359.19 65.6282 360.561 65.3098C363.117 64.7163 365.813 64.915 368.28 65.8787C369.046 66.1783 369.814 66.5551 370.625 66.5552C371.436 66.5553 372.319 66.0501 372.517 65.1566C372.564 65.9655 372.611 66.7744 372.658 67.5833C372.922 66.9286 373.186 66.2739 373.449 65.6191L373.978 68.2302L375.671 66.048C375.52 67.0098 376.013 67.9792 376.681 68.5942C377.35 69.2091 378.175 69.5493 378.966 69.9324C382.38 71.5861 385.586 74.5139 386.57 78.5803C387.192 81.1494 386.867 83.8761 386.537 86.5141C386.246 88.8462 385.93 91.2589 384.814 93.2441C384.099 94.5167 383.068 95.5876 382.632 97.0142C382.227 98.3439 382.38 99.8664 381.803 101.112C381.223 102.362 380.026 103.07 378.854 103.545C377.682 104.02 376.436 104.357 375.427 105.184C374.418 106.011 373.247 108.393 371.048 108.265L370.339 106.75C369.609 106.074 372.31 106.61 372.338 105.541C372.367 104.472 369.088 103.811 369.553 102.88C370.265 101.454 371.229 100.212 372.032 98.8482C372.972 97.2535 373.71 95.3903 373.386 93.444C373.26 92.6869 372.948 91.9717 372.473 91.4217C371.104 89.8362 369.577 90.5331 368.093 90.7599C367.07 90.9163 365.848 90.7357 365.317 89.7303C364.696 88.5539 365.388 87.0575 365.304 85.689C365.214 84.2389 364.247 83.0499 363.195 82.2232C362.142 81.3965 360.947 80.7942 360.001 79.8164C359.054 78.8386 359.204 79.3457 359.617 77.9698C352.578 83.9675 353.618 73.6117 348.893 74.9061C349.118 73.5635 349.433 72.2407 349.833 70.9518Z" fill="#2F2E41"/>
<path d="M286.376 439.754C284.527 440.852 282.676 442.337 281.274 444.966C281.01 445.461 280.775 446.001 280.554 446.56C281.176 441.533 282.416 436.803 284.203 432.863C284.862 431.41 283.755 429.279 283.091 430.742C280.258 432.415 279.064 436.325 278.608 440.955C278.045 439.297 277.352 437.801 276.545 436.556C276.215 436.047 275.755 435.94 275.433 436.556C275.157 437.082 275.101 438.164 275.433 438.676C274.214 445.952 277.36 448.206 278.447 451.829C278.471 452.632 278.497 453.425 278.522 454.2C278.545 454.968 278.802 455.425 279.101 455.582C279.245 456.01 279.507 456.305 279.772 456.305C280.218 456.305 280.535 455.618 280.559 454.806C280.646 451.828 280.914 446.656 282.471 446.93C285.786 447.515 285.939 444.468 286.794 442.646C287.467 441.212 287.347 439.178 286.376 439.754Z" fill="#E6E6E6"/>
<path d="M453.092 439.754C454.942 440.852 456.793 442.337 458.194 444.966C458.458 445.461 458.694 446.001 458.914 446.56C458.293 441.533 457.053 436.803 455.265 432.863C454.606 431.41 455.714 429.279 456.377 430.742C459.211 432.415 460.405 436.325 460.86 440.955C461.423 439.297 462.116 437.801 462.924 436.556C463.254 436.047 463.713 435.94 464.036 436.556C464.312 437.082 464.368 438.164 464.036 438.676C465.255 445.952 462.108 448.206 461.022 451.829C460.997 452.632 460.971 453.425 460.947 454.2C460.923 454.968 460.666 455.425 460.368 455.582C460.223 456.01 459.962 456.305 459.696 456.305C459.251 456.305 458.934 455.618 458.91 454.806C458.822 451.828 458.554 446.656 456.998 446.93C453.683 447.515 453.529 444.468 452.674 442.646C452.001 441.212 452.122 439.178 453.092 439.754Z" fill="#E6E6E6"/>
<path d="M147.094 455.81C147.094 456.47 147.561 457 148.141 457H502.953C503.534 457 504 456.47 504 455.81C504 455.151 503.534 454.621 502.953 454.621H148.141C147.561 454.621 147.094 455.151 147.094 455.81Z" fill="#CCCCCC"/>
<path d="M191.719 457H36.5016C17.5756 457 2.17796 439.505 2.17796 418.001V38.9983C2.17795 17.4947 17.5756 0 36.5016 0H191.719C210.645 0 226.042 17.4947 226.042 38.9983V418.001C226.042 439.505 210.645 457 191.719 457Z" fill="#3F3D56"/>
<path d="M226.042 139.41C225.242 139.41 224.59 140.15 224.59 141.06V193.854C224.59 194.764 225.242 195.504 226.042 195.504C226.843 195.504 227.494 194.764 227.494 193.854V141.06C227.494 140.15 226.843 139.41 226.042 139.41Z" fill="#3F3D56"/>
<path d="M222.775 38.9986V417.995C222.775 436.712 209.954 452.022 193.742 453.21H193.734C193.495 453.227 193.255 453.243 193.008 453.251C192.58 453.276 192.152 453.284 191.716 453.284C191.716 453.284 190.119 453.152 187.2 452.905C184.252 452.657 179.962 452.286 174.611 451.8C173.006 451.659 171.314 451.503 169.528 451.338C165.971 451.008 162.065 450.645 157.876 450.232C156.206 450.076 154.478 449.902 152.714 449.729C143.696 448.846 133.597 447.815 122.946 446.644C121.146 446.454 119.331 446.256 117.501 446.05C117.022 445.992 116.536 445.943 116.049 445.885C108.455 445.035 5.4454 422.416 5.4454 417.995V38.9986C5.44539 19.506 19.3489 3.70898 36.5049 3.70898H55.0477C58.0099 3.70898 60.3913 6.33219 60.6454 9.68958C60.6672 9.91232 60.689 10.135 60.7252 10.3578C61.2625 13.7317 63.9851 16.0826 67.0054 16.0826H161.215C164.236 16.0826 166.958 13.7317 167.496 10.3578C167.532 10.135 167.554 9.91232 167.575 9.68958C167.83 6.33219 170.211 3.70898 173.173 3.70898H191.716C208.872 3.70898 222.775 19.506 222.775 38.9986Z" fill="white"/>
<path d="M1.45205 99.8142C0.651223 99.8142 0 100.554 0 101.464V114.663C0 115.572 0.651232 116.312 1.45205 116.312C2.25288 116.312 2.90411 115.572 2.90411 114.663V101.464C2.90411 100.554 2.25288 99.8142 1.45205 99.8142Z" fill="#3F3D56"/>
<path d="M1.45205 139.41C0.651223 139.41 0 140.15 0 141.06V166.632C0 167.542 0.651232 168.282 1.45205 168.282C2.25288 168.282 2.90411 167.542 2.90411 166.632V141.06C2.90411 140.15 2.25288 139.41 1.45205 139.41Z" fill="#3F3D56"/>
<path d="M1.45205 175.706C0.651223 175.706 0 176.446 0 177.356V202.928C0 203.838 0.651232 204.578 1.45205 204.578C2.25288 204.578 2.90411 203.838 2.90411 202.928V177.356C2.90411 176.446 2.25288 175.706 1.45205 175.706Z" fill="#3F3D56"/>
<path d="M54.5423 9.48657H26.773C26.6223 9.48657 26.5001 9.6254 26.5001 9.79666V13.301C26.5001 13.4723 26.6223 13.6111 26.773 13.6111H54.5423C54.693 13.6111 54.8152 13.4723 54.8152 13.301V9.79666C54.8152 9.6254 54.693 9.48657 54.5423 9.48657Z" fill="#E6E6E6"/>
<path d="M177.761 13.6112C179.365 13.6112 180.666 12.1339 180.666 10.3116C180.666 8.48926 179.365 7.01196 177.761 7.01196C176.158 7.01196 174.857 8.48926 174.857 10.3116C174.857 12.1339 176.158 13.6112 177.761 13.6112Z" fill="#E6E6E6"/>
<path d="M185.748 13.6112C187.352 13.6112 188.652 12.1339 188.652 10.3116C188.652 8.48926 187.352 7.01196 185.748 7.01196C184.144 7.01196 182.844 8.48926 182.844 10.3116C182.844 12.1339 184.144 13.6112 185.748 13.6112Z" fill="#E6E6E6"/>
<path d="M193.734 13.6112C195.338 13.6112 196.638 12.1339 196.638 10.3116C196.638 8.48926 195.338 7.01196 193.734 7.01196C192.13 7.01196 190.83 8.48926 190.83 10.3116C190.83 12.1339 192.13 13.6112 193.734 13.6112Z" fill="#E6E6E6"/>
<path d="M214.923 435.408L221.625 433.49L217.048 398.338L207.159 401.167L214.923 435.408Z" fill="#FFB6B6"/>
<path d="M241.614 443.999C241.925 445.277 241.38 446.564 240.395 446.874L227.18 451.034C227.18 451.034 224.431 445.504 218.506 444.617L220.212 453.228L213.395 455.374L210.889 441.453C210.889 441.453 207.283 434.719 210.16 429.791C213.036 424.863 210.095 426.349 210.095 426.349L209.523 417.425L220.16 415.558L223.473 428.806L231.684 440.406L240.021 442.213C240.763 442.374 241.389 443.076 241.614 443.999Z" fill="#2F2E41"/>
<path d="M150.741 429.299L157.202 432.086L171.16 400.286L161.626 396.173L150.741 429.299Z" fill="#FFB6B6"/>
<path d="M168.297 453.703C167.909 454.953 166.813 455.654 165.85 455.268L152.918 450.084C152.918 450.084 153.45 443.762 149.039 439.18L146.099 447.35L139.428 444.676L144.387 431.633C144.387 431.633 144.823 423.766 149.665 421.595C154.506 419.425 151.346 418.731 151.346 418.731L155.373 411.042L165.036 416.43L161.077 429.447L161.966 444.299L167.891 451.203C168.418 451.817 168.578 452.8 168.297 453.703Z" fill="#2F2E41"/>
<path d="M178.792 114.912H144.505C144.555 113.085 144.211 111.257 143.508 109.619C143.491 111.438 143.131 113.256 142.469 114.912H140.91C138.53 114.912 136.595 112.713 136.595 110.009V84.695C136.595 72.2995 145.167 62.0842 156.06 61.4939C156.386 61.4749 156.705 61.4653 157.032 61.4653C165.905 61.4653 173.832 68.0058 176.53 77.6974C180.493 75.6221 182.864 87.4178 184.44 106.154C185.638 110.495 182.789 114.912 178.792 114.912Z" fill="#2F2E41"/>
<path d="M246.075 259.642C247.775 264.22 247.074 268.928 244.51 270.157C241.945 271.386 238.489 268.67 236.789 264.092C236.045 262.088 235.761 260.059 235.892 258.308L228.905 238.806L237.029 235.275L243.055 254.875C244.25 255.991 245.331 257.638 246.075 259.642Z" fill="#FFB6B6"/>
<path d="M170.949 106.344L154.56 110.24L157.074 118.808L152.046 184.341L160.426 205.443L211.538 200.683L198.97 172.122C198.97 172.122 203.997 148.321 197.294 143.561C190.591 138.801 179.698 115 179.698 115L170.949 106.344Z" fill="#3669CC"/>
<path d="M155.672 114.029L141.154 120.712L146.181 204.491L135.288 276.845L170.481 283.51C170.481 283.51 166.291 123.568 163.777 120.712C161.264 117.856 155.672 114.029 155.672 114.029Z" fill="#2F2E41"/>
<path d="M184.107 124.48C184.107 124.48 193.554 117.689 198.658 122.717C203.762 127.746 243.059 249.295 243.059 249.295L232.46 254.528L208.151 196.619L184.107 124.48Z" fill="#2F2E41"/>
<path d="M211.17 329.274L220.756 412.986L207.349 413.938C207.349 413.938 200.377 392.327 192.426 366.87C190.733 361.471 188.999 355.902 187.281 350.323C185.421 344.268 183.569 338.213 181.809 332.368C177.46 317.954 173.648 304.835 171.469 296.267C171.092 294.763 170.757 293.401 170.481 292.202C164.615 266.611 161.264 199.731 161.264 199.731L209.863 194.97L210.382 195.704L220.756 210.431L220.27 213.545L207.349 295.886L211.17 329.274Z" fill="#2F2E41"/>
<path d="M207.349 295.886L211.17 329.274L193.984 363.652L192.426 366.87L168.763 415.728L157.074 408.197C157.074 408.197 172.282 368.488 181.809 332.368C182.865 328.398 183.845 324.466 184.725 320.639C187.314 309.433 183.075 288.984 184.734 283.348C190.339 264.326 208.606 226.273 217.085 209.032L220.27 213.545L207.349 295.886Z" fill="#2F2E41"/>
<path d="M179.485 114.276L196.456 121.664L240.865 269.229L214.052 273.989L201.483 188.306L179.485 114.276Z" fill="#2F2E41"/>
<path d="M137.055 273.56C136.623 278.505 134.028 282.26 131.258 281.948C128.489 281.636 126.594 277.374 127.026 272.429C127.215 270.265 127.819 268.328 128.67 266.861L130.732 245.936L139.354 247.244L136.406 267.734C136.987 269.362 137.244 271.396 137.055 273.56Z" fill="#FFB6B6"/>
<path d="M147.019 120.712C147.019 120.712 136.126 117.856 132.774 124.52C129.423 131.184 127.747 260.661 127.747 260.661L139.273 261.613L145.343 197.827L147.019 120.712Z" fill="#2F2E41"/>
<path d="M160.921 104.035C170.54 104.035 178.339 95.175 178.339 84.2451C178.339 73.3152 170.54 64.4548 160.921 64.4548C151.301 64.4548 143.503 73.3152 143.503 84.2451C143.503 95.175 151.301 104.035 160.921 104.035Z" fill="#FFB6B6"/>
<path d="M182.786 82.5434C182.786 82.5434 174.301 79.6873 169.221 82.5434C162.161 86.5126 144.136 82.5434 144.136 82.5434V73.597C144.136 68.3742 147.559 63.9687 152.12 63.3209L165.128 61.4735C175.338 60.0234 184.356 69.0688 184.356 80.7598C184.356 81.7449 183.653 82.5434 182.786 82.5434Z" fill="#2F2E41"/>
<path d="M164.246 114.913H144.505C144.555 113.085 144.211 111.257 143.508 109.619C143.491 111.438 143.131 113.256 142.469 114.913H141.622V74.9272H156.705L164.246 114.913Z" fill="#2F2E41"/>
</g>
<defs>
<clipPath id="clip0_90_343">
<rect width="504" height="457" fill="white"/>
</clipPath>
</defs>
</svg>
